# xmcd
#
# Track frame offsets: 
#        150
#        11086
#        28517
#        40011
#        52128
#        64841
#        77137
#        89252
#        102387
#        114769
#        126223
#        138615
#        152113
#        163155
#        172805
#        183852
#        197518
#        211908
#
# Disc length: 2989 seconds
#
# Revision: 0
# Processed by: cddbd v1.5.2PL0 Copyright (c) Steve Scherf et al.
# Submitted via: ExactAudioCopyFreeDBPlugin 1.0
#
DISCID=ed0bab12
DTITLE=Howlin' Wolf - Blues From Hell - CD3
DYEAR=2015
DGENRE=Blues
TTITLE0=The Red Rooster
TTITLE1=Crying At Daylight
TTITLE2=Morning At Midnight
TTITLE3=Going Back Home
TTITLE4=Back Door Man
TTITLE5=Mr. Airplane Man
TTITLE6=Brown Skin Woman
TTITLE7=Tell Me
TTITLE8=Little Baby
TTITLE9=Who Will Be Next
TTITLE10=Howlin' Wolf Boogie
TTITLE11=Worried About My Baby
TTITLE12=You'll Be Mine
TTITLE13=So Glad
TTITLE14=Somebody In My Home
TTITLE15=My Life
TTITLE16=I'll Be Around
TTITLE17=I Better Go Now
EXTD=
EXTT0=
EXTT1=
EXTT2=
EXTT3=
EXTT4=
EXTT5=
EXTT6=
EXTT7=
EXTT8=
EXTT9=
EXTT10=
EXTT11=
EXTT12=
EXTT13=
EXTT14=
EXTT15=
EXTT16=
EXTT17=
PLAYORDER=
